<mxfile host="app.diagrams.net" modified="2021-03-04T08:36:29.740Z" agent="5.0 (Windows NT 10.0; Win64; x64) AppleWebKit/537.36 (KHTML, like Gecko) Chrome/88.0.4324.182 Safari/537.36 Edg/88.0.705.81" etag="Oe36Jk4HKnLZp8hSy_X5" version="14.4.4" type="github">
  <diagram id="qvvtJD3wGNcPgJMWLbbx" name="Page-1">
    <mxGraphModel dx="599" dy="332" grid="1" gridSize="10" guides="1" tooltips="1" connect="1" arrows="1" fold="1" page="1" pageScale="1" pageWidth="827" pageHeight="1169" math="0" shadow="0">
      <root>
        <mxCell id="0" />
        <mxCell id="1" parent="0" />
        <mxCell id="iM5ZqIe5i4lhruRLK5ZW-10" style="edgeStyle=orthogonalEdgeStyle;rounded=0;orthogonalLoop=1;jettySize=auto;html=1;exitX=1;exitY=0.5;exitDx=0;exitDy=0;entryX=0;entryY=0.75;entryDx=0;entryDy=0;" edge="1" parent="1" source="iM5ZqIe5i4lhruRLK5ZW-1" target="iM5ZqIe5i4lhruRLK5ZW-8">
          <mxGeometry relative="1" as="geometry" />
        </mxCell>
        <mxCell id="iM5ZqIe5i4lhruRLK5ZW-1" value="Accelerometer" style="text;html=1;strokeColor=none;fillColor=none;align=center;verticalAlign=middle;whiteSpace=wrap;rounded=0;" vertex="1" parent="1">
          <mxGeometry x="120" y="110" width="80" height="20" as="geometry" />
        </mxCell>
        <mxCell id="iM5ZqIe5i4lhruRLK5ZW-9" style="edgeStyle=orthogonalEdgeStyle;rounded=0;orthogonalLoop=1;jettySize=auto;html=1;exitX=1;exitY=0.5;exitDx=0;exitDy=0;entryX=0;entryY=0.25;entryDx=0;entryDy=0;" edge="1" parent="1" source="iM5ZqIe5i4lhruRLK5ZW-2" target="iM5ZqIe5i4lhruRLK5ZW-8">
          <mxGeometry relative="1" as="geometry" />
        </mxCell>
        <mxCell id="iM5ZqIe5i4lhruRLK5ZW-2" value="Magnetometer" style="text;html=1;strokeColor=none;fillColor=none;align=center;verticalAlign=middle;whiteSpace=wrap;rounded=0;" vertex="1" parent="1">
          <mxGeometry x="120" y="90" width="80" height="20" as="geometry" />
        </mxCell>
        <mxCell id="iM5ZqIe5i4lhruRLK5ZW-19" style="edgeStyle=orthogonalEdgeStyle;rounded=0;orthogonalLoop=1;jettySize=auto;html=1;exitX=1;exitY=0.5;exitDx=0;exitDy=0;entryX=0;entryY=0.5;entryDx=0;entryDy=0;entryPerimeter=0;" edge="1" parent="1" source="iM5ZqIe5i4lhruRLK5ZW-4" target="iM5ZqIe5i4lhruRLK5ZW-5">
          <mxGeometry relative="1" as="geometry" />
        </mxCell>
        <mxCell id="iM5ZqIe5i4lhruRLK5ZW-4" value="Gyroscope" style="text;html=1;strokeColor=none;fillColor=none;align=center;verticalAlign=middle;whiteSpace=wrap;rounded=0;" vertex="1" parent="1">
          <mxGeometry x="120" y="200" width="60" height="20" as="geometry" />
        </mxCell>
        <mxCell id="iM5ZqIe5i4lhruRLK5ZW-41" style="edgeStyle=orthogonalEdgeStyle;rounded=0;orthogonalLoop=1;jettySize=auto;html=1;exitX=1;exitY=0.5;exitDx=0;exitDy=0;exitPerimeter=0;entryX=0;entryY=0.5;entryDx=0;entryDy=0;" edge="1" parent="1" source="iM5ZqIe5i4lhruRLK5ZW-5" target="iM5ZqIe5i4lhruRLK5ZW-38">
          <mxGeometry relative="1" as="geometry" />
        </mxCell>
        <mxCell id="iM5ZqIe5i4lhruRLK5ZW-5" value="" style="verticalLabelPosition=bottom;verticalAlign=top;html=1;shape=mxgraph.flowchart.or;" vertex="1" parent="1">
          <mxGeometry x="190" y="200" width="20" height="20" as="geometry" />
        </mxCell>
        <mxCell id="iM5ZqIe5i4lhruRLK5ZW-20" style="edgeStyle=orthogonalEdgeStyle;rounded=0;orthogonalLoop=1;jettySize=auto;html=1;exitX=1;exitY=0.5;exitDx=0;exitDy=0;entryX=0;entryY=0.5;entryDx=0;entryDy=0;" edge="1" parent="1" source="iM5ZqIe5i4lhruRLK5ZW-2" target="iM5ZqIe5i4lhruRLK5ZW-12">
          <mxGeometry relative="1" as="geometry" />
        </mxCell>
        <mxCell id="iM5ZqIe5i4lhruRLK5ZW-43" style="edgeStyle=orthogonalEdgeStyle;rounded=0;orthogonalLoop=1;jettySize=auto;html=1;exitX=0.25;exitY=1;exitDx=0;exitDy=0;entryX=0.75;entryY=0;entryDx=0;entryDy=0;" edge="1" parent="1" source="iM5ZqIe5i4lhruRLK5ZW-8" target="iM5ZqIe5i4lhruRLK5ZW-14">
          <mxGeometry relative="1" as="geometry" />
        </mxCell>
        <mxCell id="iM5ZqIe5i4lhruRLK5ZW-48" style="edgeStyle=orthogonalEdgeStyle;rounded=0;orthogonalLoop=1;jettySize=auto;html=1;exitX=0.75;exitY=1;exitDx=0;exitDy=0;entryX=0.5;entryY=0;entryDx=0;entryDy=0;entryPerimeter=0;" edge="1" parent="1" source="iM5ZqIe5i4lhruRLK5ZW-8" target="iM5ZqIe5i4lhruRLK5ZW-36">
          <mxGeometry relative="1" as="geometry">
            <mxPoint x="360.3103448275863" y="170" as="targetPoint" />
          </mxGeometry>
        </mxCell>
        <mxCell id="iM5ZqIe5i4lhruRLK5ZW-8" value="Algoritma &lt;i&gt;Gradient Descent&lt;/i&gt;" style="rounded=0;whiteSpace=wrap;html=1;" vertex="1" parent="1">
          <mxGeometry x="240" y="90" width="160" height="40" as="geometry" />
        </mxCell>
        <mxCell id="iM5ZqIe5i4lhruRLK5ZW-21" value="" style="edgeStyle=orthogonalEdgeStyle;rounded=0;orthogonalLoop=1;jettySize=auto;html=1;" edge="1" parent="1" source="iM5ZqIe5i4lhruRLK5ZW-12">
          <mxGeometry relative="1" as="geometry">
            <mxPoint x="320" y="90" as="targetPoint" />
          </mxGeometry>
        </mxCell>
        <mxCell id="iM5ZqIe5i4lhruRLK5ZW-12" value="Magnetic distorsion compenstion" style="rounded=0;whiteSpace=wrap;html=1;" vertex="1" parent="1">
          <mxGeometry x="240" y="40" width="160" height="30" as="geometry" />
        </mxCell>
        <mxCell id="iM5ZqIe5i4lhruRLK5ZW-26" value="" style="edgeStyle=orthogonalEdgeStyle;rounded=0;orthogonalLoop=1;jettySize=auto;html=1;" edge="1" parent="1" source="iM5ZqIe5i4lhruRLK5ZW-13">
          <mxGeometry relative="1" as="geometry">
            <mxPoint x="580" y="210" as="targetPoint" />
          </mxGeometry>
        </mxCell>
        <mxCell id="iM5ZqIe5i4lhruRLK5ZW-27" style="edgeStyle=orthogonalEdgeStyle;rounded=0;orthogonalLoop=1;jettySize=auto;html=1;exitX=1;exitY=0.5;exitDx=0;exitDy=0;entryX=1;entryY=0.5;entryDx=0;entryDy=0;" edge="1" parent="1" source="iM5ZqIe5i4lhruRLK5ZW-13" target="iM5ZqIe5i4lhruRLK5ZW-8">
          <mxGeometry relative="1" as="geometry" />
        </mxCell>
        <mxCell id="iM5ZqIe5i4lhruRLK5ZW-28" style="edgeStyle=orthogonalEdgeStyle;rounded=0;orthogonalLoop=1;jettySize=auto;html=1;exitX=1;exitY=0.5;exitDx=0;exitDy=0;entryX=1;entryY=0.5;entryDx=0;entryDy=0;" edge="1" parent="1" source="iM5ZqIe5i4lhruRLK5ZW-13" target="iM5ZqIe5i4lhruRLK5ZW-12">
          <mxGeometry relative="1" as="geometry">
            <Array as="points">
              <mxPoint x="560" y="210" />
              <mxPoint x="560" y="55" />
            </Array>
          </mxGeometry>
        </mxCell>
        <mxCell id="iM5ZqIe5i4lhruRLK5ZW-34" style="edgeStyle=orthogonalEdgeStyle;rounded=0;orthogonalLoop=1;jettySize=auto;html=1;exitX=1;exitY=0.5;exitDx=0;exitDy=0;entryX=0.5;entryY=1;entryDx=0;entryDy=0;" edge="1" parent="1" source="iM5ZqIe5i4lhruRLK5ZW-13" target="iM5ZqIe5i4lhruRLK5ZW-22">
          <mxGeometry relative="1" as="geometry">
            <Array as="points">
              <mxPoint x="560" y="210" />
              <mxPoint x="560" y="250" />
              <mxPoint x="404" y="250" />
            </Array>
          </mxGeometry>
        </mxCell>
        <mxCell id="iM5ZqIe5i4lhruRLK5ZW-50" style="edgeStyle=orthogonalEdgeStyle;rounded=0;orthogonalLoop=1;jettySize=auto;html=1;exitX=1;exitY=0.5;exitDx=0;exitDy=0;entryX=0.5;entryY=1;entryDx=0;entryDy=0;" edge="1" parent="1" source="iM5ZqIe5i4lhruRLK5ZW-13" target="iM5ZqIe5i4lhruRLK5ZW-38">
          <mxGeometry relative="1" as="geometry">
            <Array as="points">
              <mxPoint x="560" y="210" />
              <mxPoint x="560" y="250" />
              <mxPoint x="289" y="250" />
            </Array>
          </mxGeometry>
        </mxCell>
        <mxCell id="iM5ZqIe5i4lhruRLK5ZW-51" style="edgeStyle=orthogonalEdgeStyle;rounded=0;orthogonalLoop=1;jettySize=auto;html=1;exitX=1;exitY=0.5;exitDx=0;exitDy=0;entryX=0.25;entryY=1;entryDx=0;entryDy=0;" edge="1" parent="1" source="iM5ZqIe5i4lhruRLK5ZW-13" target="iM5ZqIe5i4lhruRLK5ZW-14">
          <mxGeometry relative="1" as="geometry">
            <Array as="points">
              <mxPoint x="560" y="210" />
              <mxPoint x="560" y="250" />
              <mxPoint x="230" y="250" />
            </Array>
          </mxGeometry>
        </mxCell>
        <mxCell id="iM5ZqIe5i4lhruRLK5ZW-13" value="Qauternion normalisasi" style="rounded=0;whiteSpace=wrap;html=1;" vertex="1" parent="1">
          <mxGeometry x="440" y="195" width="100" height="30" as="geometry" />
        </mxCell>
        <mxCell id="iM5ZqIe5i4lhruRLK5ZW-18" style="edgeStyle=orthogonalEdgeStyle;rounded=0;orthogonalLoop=1;jettySize=auto;html=1;exitX=0;exitY=0.5;exitDx=0;exitDy=0;entryX=0.5;entryY=0;entryDx=0;entryDy=0;entryPerimeter=0;" edge="1" parent="1" source="iM5ZqIe5i4lhruRLK5ZW-14" target="iM5ZqIe5i4lhruRLK5ZW-5">
          <mxGeometry relative="1" as="geometry">
            <mxPoint x="210" y="190" as="targetPoint" />
            <Array as="points">
              <mxPoint x="200" y="165" />
            </Array>
          </mxGeometry>
        </mxCell>
        <mxCell id="iM5ZqIe5i4lhruRLK5ZW-14" value="Bias drift compensation" style="rounded=0;whiteSpace=wrap;html=1;" vertex="1" parent="1">
          <mxGeometry x="210" y="150" width="80" height="30" as="geometry" />
        </mxCell>
        <mxCell id="iM5ZqIe5i4lhruRLK5ZW-45" value="" style="edgeStyle=orthogonalEdgeStyle;rounded=0;orthogonalLoop=1;jettySize=auto;html=1;" edge="1" parent="1" source="iM5ZqIe5i4lhruRLK5ZW-22" target="iM5ZqIe5i4lhruRLK5ZW-13">
          <mxGeometry relative="1" as="geometry" />
        </mxCell>
        <mxCell id="iM5ZqIe5i4lhruRLK5ZW-22" value="âˆ«" style="rounded=0;whiteSpace=wrap;html=1;" vertex="1" parent="1">
          <mxGeometry x="389" y="200" width="30" height="20" as="geometry" />
        </mxCell>
        <mxCell id="iM5ZqIe5i4lhruRLK5ZW-25" value="q&lt;sub&gt;est&lt;/sub&gt;" style="text;html=1;strokeColor=none;fillColor=none;align=center;verticalAlign=middle;whiteSpace=wrap;rounded=0;" vertex="1" parent="1">
          <mxGeometry x="580" y="200" width="30" height="20" as="geometry" />
        </mxCell>
        <mxCell id="iM5ZqIe5i4lhruRLK5ZW-46" value="" style="edgeStyle=orthogonalEdgeStyle;rounded=0;orthogonalLoop=1;jettySize=auto;html=1;" edge="1" parent="1" source="iM5ZqIe5i4lhruRLK5ZW-36">
          <mxGeometry relative="1" as="geometry">
            <mxPoint x="390" y="210" as="targetPoint" />
          </mxGeometry>
        </mxCell>
        <mxCell id="iM5ZqIe5i4lhruRLK5ZW-36" value="" style="verticalLabelPosition=bottom;verticalAlign=top;html=1;shape=mxgraph.flowchart.or;" vertex="1" parent="1">
          <mxGeometry x="350" y="200" width="20" height="20" as="geometry" />
        </mxCell>
        <mxCell id="iM5ZqIe5i4lhruRLK5ZW-49" value="" style="edgeStyle=orthogonalEdgeStyle;rounded=0;orthogonalLoop=1;jettySize=auto;html=1;" edge="1" parent="1" source="iM5ZqIe5i4lhruRLK5ZW-38">
          <mxGeometry relative="1" as="geometry">
            <mxPoint x="350" y="210" as="targetPoint" />
          </mxGeometry>
        </mxCell>
        <mxCell id="iM5ZqIe5i4lhruRLK5ZW-38" value="Quaternion Propagation" style="rounded=0;whiteSpace=wrap;html=1;" vertex="1" parent="1">
          <mxGeometry x="249" y="195" width="80" height="30" as="geometry" />
        </mxCell>
      </root>
    </mxGraphModel>
  </diagram>
</mxfile>
